<svg xmlns="http://www.w3.org/2000/svg" xmlns:xlink="http://www.w3.org/1999/xlink" id="Layer_3" data-name="Layer 3" viewBox="0 0 499 184.27"><defs><style>.cls-1,.cls-3{fill:none}.cls-2{clip-path:url(#clip-path)}.cls-3{stroke:#262262;stroke-linecap:round;stroke-linejoin:round;stroke-width:4px}</style><clipPath id="clip-path" transform="translate(-100.66 -259.87)"><path d="M144.57,396c0,18.2-9.37,27.83-37.33,23.55V400.1c11.11,2.14,12.18-.27,12.18-11.5V324.11h25Zm-12.71-78.66c-9,0-15.52-1.48-15.52-12.71S122.9,292,131.86,292s15.52,1.2,15.52,12.58C147.38,315.55,141,317.29,131.86,317.29Zm50.57,76.39c-30.64,0-35.85-18.86-35.85-35.59s5.61-35.32,35.72-35.32c35.32,0,33.44,28,33.44,40.67H170.12c.54,9.5,4,14.05,11.37,14.05,6.83,0,9.64-3.34,10-7.89l24.75.13C215.48,383.38,205.84,393.68,182.43,393.68Zm-1.47-55c-6.69,0-10,2.81-10.84,12h21.41C190.73,341.9,188.18,338.69,181,338.69Zm112.78,53.65V351.4c0-4.15-1.33-8.16-6-8.16-5,0-6,3.75-6,8.16v40.94H256.42V351.4c0-4.15-.81-8.16-5.89-8.16s-6.29,3.75-6.29,8.16v40.94H219.09V324.11h14l4.15,8c2.67-4.69,10.56-9.37,18.86-9.37,7.36,0,16.19,2.14,21,9.1,3.48-5.22,11.11-9.1,20.21-9.1,19.13,0,21.54,11.37,21.54,27.16v42.41Zm83.09,0L372.41,383c-5.48,7.22-13.11,10.7-24.35,10.7-14.85,0-26.75-6-26.75-19.93,0-15.26,12.44-20.88,44.28-23,0-9.5-1.61-12.57-8.83-12.57-6.69,0-8.56,3.48-8.56,9.9H323.45c0-12.85,6.82-25.29,32.64-25.29,30,0,34.65,14.45,34.65,31.17v38.4Zm-21.54-28.63c-6.29.94-8.3,4.28-8.3,7.36,0,4.28,2.41,6.69,8.3,6.69s10.17-4.82,10.17-15.12ZM396,392.34V297.75h24.75v94.59Zm30.77,0V297.75h24.75v94.59Zm62.21,1.34c-28.09,0-34.11-18.6-34.11-35.32s6.29-35.59,34.38-35.59c27.7,0,34.12,19,34.12,35.59C523.33,375.22,516.91,393.68,488.94,393.68Zm.27-50.84c-7.89,0-11.37,4.82-11.37,15.52s3.61,15.39,11.1,15.39c7.9,0,11.38-4.42,11.38-15.39C500.32,347.79,497.24,342.84,489.21,342.84Zm69.17,50.84c-28.9,0-34.52-18.6-34.52-35.32s5.76-35.59,34.12-35.59c21.14,0,34.52,10.84,34.52,31.17H568.42c0-9.23-5.49-11.23-10.17-11.23-7,0-11.11,4.54-11.11,15.38s4,15.52,11.11,15.52c4.81,0,10-2.41,10-10.57H592.5C592.5,383.38,579,393.68,558.38,393.68Z" class="cls-1"/></clipPath></defs><title>jemalloc Final Logo</title><g class="cls-2"><line x1="345" x2="345" y1="182.27" y2="2" class="cls-3"/><line x1="225" x2="225" y1="182.27" y2="2" class="cls-3"/><line x1="105" x2="105" y1="182.27" y2="2" class="cls-3"/><line x1="43" x2="43" y1="182.27" y2="2" class="cls-3"/><line x1="475" x2="475" y1="182.27" y2="2" class="cls-3"/><line x1="195" x2="195" y1="182.27" y2="2" class="cls-3"/><line x1="75" x2="75" y1="182.27" y2="2" class="cls-3"/><line x1="337" x2="337" y1="182.27" y2="2" class="cls-3"/><line x1="215" x2="215" y1="182.27" y2="2" class="cls-3"/><line x1="95" x2="95" y1="182.27" y2="2" class="cls-3"/><line x1="415" x2="415" y1="182.27" y2="2" class="cls-3"/><line x1="385" x2="385" y1="182.27" y2="2" class="cls-3"/><line x1="183" x2="183" y1="182.27" y2="2" class="cls-3"/><line x1="65" x2="65" y1="182.27" y2="2" class="cls-3"/><line x1="173" x2="173" y1="182.27" y2="2" class="cls-3"/><line x1="145" x2="145" y1="182.27" y2="2" class="cls-3"/><line x1="163" x2="163" y1="182.27" y2="2" class="cls-3"/><line x1="460" x2="460" y1="182.27" y2="2" class="cls-3"/><line x1="281" x2="281" y1="182.27" y2="2" class="cls-3"/><line x1="313" x2="313" y1="182.27" y2="2" class="cls-3"/><line x1="252" x2="252" y1="182.27" y2="2" class="cls-3"/><line x1="450" x2="450" y1="182.27" y2="2" class="cls-3"/><line x1="271" x2="271" y1="182.27" y2="2" class="cls-3"/><line x1="332" x2="332" y1="182.27" y2="2" class="cls-3"/><line x1="203" x2="203" y1="182.27" y2="2" class="cls-3"/><line x1="13" x2="13" y1="182.27" y2="2" class="cls-3"/><line x1="373" x2="373" y1="182.27" y2="2" class="cls-3"/><line x1="354" x2="354" y1="182.27" y2="2" class="cls-3"/><line x1="235" x2="235" y1="182.27" y2="2" class="cls-3"/><line x1="115" x2="115" y1="182.27" y2="2" class="cls-3"/><line x1="53" x2="53" y1="182.27" y2="2" class="cls-3"/><line x1="484" x2="484" y1="182.27" y2="2" class="cls-3"/><line x1="405" x2="405" y1="182.27" y2="2" class="cls-3"/><line x1="85" x2="85" y1="182.27" y2="2" class="cls-3"/><line x1="225" x2="225" y1="182.27" y2="2" class="cls-3"/><line x1="105" x2="105" y1="182.27" y2="2" class="cls-3"/><line x1="43" x2="43" y1="182.27" y2="2" class="cls-3"/><line x1="435" x2="435" y1="182.27" y2="2" class="cls-3"/><line x1="123" x2="123" y1="182.27" y2="2" class="cls-3"/><line x1="75" x2="75" y1="182.27" y2="2" class="cls-3"/><line x1="183" x2="183" y1="182.27" y2="2" class="cls-3"/><line x1="155" x2="155" y1="182.27" y2="2" class="cls-3"/><line x1="173" x2="173" y1="182.27" y2="2" class="cls-3"/><line x1="145" x2="145" y1="182.27" y2="2" class="cls-3"/><line x1="470" x2="470" y1="182.27" y2="2" class="cls-3"/><line x1="292" x2="292" y1="182.27" y2="2" class="cls-3"/><line x1="262" x2="262" y1="182.27" y2="2" class="cls-3"/><line x1="460" x2="460" y1="182.27" y2="2" class="cls-3"/><line x1="281" x2="281" y1="182.27" y2="2" class="cls-3"/><line x1="313" x2="313" y1="182.27" y2="2" class="cls-3"/><line x1="243" x2="243" y1="182.27" y2="2" class="cls-3"/><line x1="22" x2="22" y1="182.27" y2="2" class="cls-3"/><line x1="383" x2="383" y1="182.27" y2="2" class="cls-3"/><line x1="5" x2="5" y1="182.27" y2="2" class="cls-3"/><line x1="133" x2="133" y1="182.27" y2="2" class="cls-3"/><line x1="362" x2="362" y1="182.27" y2="2" class="cls-3"/><line x1="288" x2="288" y1="182.27" y2="2" class="cls-3"/><line x1="298" x2="298" y1="182.27" y2="2" class="cls-3"/><line x1="423" x2="423" y1="182.27" y2="2" class="cls-3"/><line x1="369" x2="369" y1="182.27" y2="2" class="cls-3"/><line x1="490" x2="490" y1="182.27" y2="2" class="cls-3"/><line x1="2" x2="2" y1="182.27" y2="2" class="cls-3"/><line x1="493" x2="493" y1="182.27" y2="2" class="cls-3"/><line x1="225" x2="225" y1="182.27" y2="2" class="cls-3"/><line x1="105" x2="105" y1="182.27" y2="2" class="cls-3"/><line x1="43" x2="43" y1="182.27" y2="2" class="cls-3"/><line x1="475" x2="475" y1="182.27" y2="2" class="cls-3"/><line x1="195" x2="195" y1="182.27" y2="2" class="cls-3"/><line x1="75" x2="75" y1="182.27" y2="2" class="cls-3"/><line x1="337" x2="337" y1="182.27" y2="2" class="cls-3"/><line x1="215" x2="215" y1="182.27" y2="2" class="cls-3"/><line x1="95" x2="95" y1="182.27" y2="2" class="cls-3"/><line x1="415" x2="415" y1="182.27" y2="2" class="cls-3"/><line x1="385" x2="385" y1="182.27" y2="2" class="cls-3"/><line x1="183" x2="183" y1="182.27" y2="2" class="cls-3"/><line x1="65" x2="65" y1="182.27" y2="2" class="cls-3"/><line x1="173" x2="173" y1="182.27" y2="2" class="cls-3"/><line x1="145" x2="145" y1="182.27" y2="2" class="cls-3"/><line x1="163" x2="163" y1="182.27" y2="2" class="cls-3"/><line x1="460" x2="460" y1="182.27" y2="2" class="cls-3"/><line x1="281" x2="281" y1="182.27" y2="2" class="cls-3"/><line x1="313" x2="313" y1="182.27" y2="2" class="cls-3"/><line x1="252" x2="252" y1="182.27" y2="2" class="cls-3"/><line x1="450" x2="450" y1="182.27" y2="2" class="cls-3"/><line x1="271" x2="271" y1="182.27" y2="2" class="cls-3"/><line x1="306" x2="306" y1="182.27" y2="2" class="cls-3"/><line x1="203" x2="203" y1="182.27" y2="2" class="cls-3"/><line x1="13" x2="13" y1="182.27" y2="2" class="cls-3"/><line x1="373" x2="373" y1="182.27" y2="2" class="cls-3"/><line x1="354" x2="354" y1="182.27" y2="2" class="cls-3"/><line x1="235" x2="235" y1="182.27" y2="2" class="cls-3"/><line x1="115" x2="115" y1="182.27" y2="2" class="cls-3"/><line x1="53" x2="53" y1="182.27" y2="2" class="cls-3"/><line x1="484" x2="484" y1="182.27" y2="2" class="cls-3"/><line x1="405" x2="405" y1="182.27" y2="2" class="cls-3"/><line x1="85" x2="85" y1="182.27" y2="2" class="cls-3"/><line x1="225" x2="225" y1="182.27" y2="2" class="cls-3"/><line x1="105" x2="105" y1="182.27" y2="2" class="cls-3"/><line x1="43" x2="43" y1="182.27" y2="2" class="cls-3"/><line x1="435" x2="435" y1="182.27" y2="2" class="cls-3"/><line x1="123" x2="123" y1="182.27" y2="2" class="cls-3"/><line x1="75" x2="75" y1="182.27" y2="2" class="cls-3"/><line x1="183" x2="183" y1="182.27" y2="2" class="cls-3"/><line x1="155" x2="155" y1="182.27" y2="2" class="cls-3"/><line x1="173" x2="173" y1="182.27" y2="2" class="cls-3"/><line x1="145" x2="145" y1="182.27" y2="2" class="cls-3"/><line x1="470" x2="470" y1="182.27" y2="2" class="cls-3"/><line x1="292" x2="292" y1="182.27" y2="2" class="cls-3"/><line x1="262" x2="262" y1="182.27" y2="2" class="cls-3"/><line x1="460" x2="460" y1="182.27" y2="2" class="cls-3"/><line x1="281" x2="281" y1="182.27" y2="2" class="cls-3"/><line x1="328" x2="328" y1="182.27" y2="2" class="cls-3"/><line x1="243" x2="243" y1="182.27" y2="2" class="cls-3"/><line x1="22" x2="22" y1="182.27" y2="2" class="cls-3"/><line x1="383" x2="383" y1="182.27" y2="2" class="cls-3"/><line x1="5" x2="5" y1="182.27" y2="2" class="cls-3"/><line x1="32" x2="32" y1="182.27" y2="2" class="cls-3"/><line x1="133" x2="133" y1="182.27" y2="2" class="cls-3"/><line x1="362" x2="362" y1="182.27" y2="2" class="cls-3"/><line x1="288" x2="288" y1="182.27" y2="2" class="cls-3"/><line x1="298" x2="298" y1="182.27" y2="2" class="cls-3"/><line x1="423" x2="423" y1="182.27" y2="2" class="cls-3"/><line x1="369" x2="369" y1="182.27" y2="2" class="cls-3"/><line x1="490" x2="490" y1="182.27" y2="2" class="cls-3"/><line x1="2" x2="2" y1="182.27" y2="2" class="cls-3"/><line x1="493" x2="493" y1="182.27" y2="2" class="cls-3"/><line x1="349" x2="349" y1="182.27" y2="2" class="cls-3"/><line x1="229" x2="229" y1="182.27" y2="2" class="cls-3"/><line x1="109" x2="109" y1="182.27" y2="2" class="cls-3"/><line x1="47" x2="47" y1="182.27" y2="2" class="cls-3"/><line x1="479" x2="479" y1="182.27" y2="2" class="cls-3"/><line x1="399" x2="399" y1="182.27" y2="2" class="cls-3"/><line x1="199" x2="199" y1="182.27" y2="2" class="cls-3"/><line x1="79" x2="79" y1="182.27" y2="2" class="cls-3"/><line x1="341" x2="341" y1="182.27" y2="2" class="cls-3"/><line x1="219" x2="219" y1="182.27" y2="2" class="cls-3"/><line x1="99" x2="99" y1="182.27" y2="2" class="cls-3"/><line x1="41" x2="41" y1="182.27" y2="2" class="cls-3"/><line x1="419" x2="419" y1="182.27" y2="2" class="cls-3"/><line x1="389" x2="389" y1="182.27" y2="2" class="cls-3"/><line x1="187" x2="187" y1="182.27" y2="2" class="cls-3"/><line x1="69" x2="69" y1="182.27" y2="2" class="cls-3"/><line x1="177" x2="177" y1="182.27" y2="2" class="cls-3"/><line x1="149" x2="149" y1="182.27" y2="2" class="cls-3"/><line x1="464" x2="464" y1="182.27" y2="2" class="cls-3"/><line x1="285" x2="285" y1="182.27" y2="2" class="cls-3"/><line x1="317" x2="317" y1="182.27" y2="2" class="cls-3"/><line x1="454" x2="454" y1="182.27" y2="2" class="cls-3"/><line x1="275" x2="275" y1="182.27" y2="2" class="cls-3"/><line x1="308" x2="308" y1="182.27" y2="2" class="cls-3"/><line x1="207" x2="207" y1="182.27" y2="2" class="cls-3"/><line x1="17" x2="17" y1="182.27" y2="2" class="cls-3"/><line x1="377" x2="377" y1="182.27" y2="2" class="cls-3"/><line x1="358" x2="358" y1="182.27" y2="2" class="cls-3"/><line x1="238" x2="238" y1="182.27" y2="2" class="cls-3"/><line x1="119" x2="119" y1="182.27" y2="2" class="cls-3"/><line x1="488" x2="488" y1="182.27" y2="2" class="cls-3"/><line x1="409" x2="409" y1="182.27" y2="2" class="cls-3"/><line x1="229" x2="229" y1="182.27" y2="2" class="cls-3"/><line x1="109" x2="109" y1="182.27" y2="2" class="cls-3"/><line x1="47" x2="47" y1="182.27" y2="2" class="cls-3"/><line x1="439" x2="439" y1="182.27" y2="2" class="cls-3"/><line x1="399" x2="399" y1="182.27" y2="2" class="cls-3"/><line x1="127" x2="127" y1="182.27" y2="2" class="cls-3"/><line x1="79" x2="79" y1="182.27" y2="2" class="cls-3"/><line x1="187" x2="187" y1="182.27" y2="2" class="cls-3"/><line x1="159" x2="159" y1="182.27" y2="2" class="cls-3"/><line x1="177" x2="177" y1="182.27" y2="2" class="cls-3"/><line x1="149" x2="149" y1="182.27" y2="2" class="cls-3"/><line x1="474" x2="474" y1="182.27" y2="2" class="cls-3"/><line x1="266" x2="266" y1="182.27" y2="2" class="cls-3"/><line x1="464" x2="464" y1="182.27" y2="2" class="cls-3"/><line x1="285" x2="285" y1="182.27" y2="2" class="cls-3"/><line x1="317" x2="317" y1="182.27" y2="2" class="cls-3"/><line x1="247" x2="247" y1="182.27" y2="2" class="cls-3"/><line x1="26" x2="26" y1="182.27" y2="2" class="cls-3"/><line x1="387" x2="387" y1="182.27" y2="2" class="cls-3"/><line x1="9" x2="9" y1="182.27" y2="2" class="cls-3"/><line x1="137" x2="137" y1="182.27" y2="2" class="cls-3"/><line x1="292" x2="292" y1="182.27" y2="2" class="cls-3"/><line x1="373" x2="373" y1="182.27" y2="2" class="cls-3"/><line x1="56" x2="56" y1="182.27" y2="2" class="cls-3"/><line x1="494" x2="494" y1="182.27" y2="2" class="cls-3"/><line x1="497" x2="497" y1="182.27" y2="2" class="cls-3"/><line x1="349" x2="349" y1="182.27" y2="2" class="cls-3"/><line x1="229" x2="229" y1="182.27" y2="2" class="cls-3"/><line x1="109" x2="109" y1="182.27" y2="2" class="cls-3"/><line x1="47" x2="47" y1="182.27" y2="2" class="cls-3"/><line x1="479" x2="479" y1="182.27" y2="2" class="cls-3"/><line x1="399" x2="399" y1="182.27" y2="2" class="cls-3"/><line x1="199" x2="199" y1="182.27" y2="2" class="cls-3"/><line x1="79" x2="79" y1="182.27" y2="2" class="cls-3"/><line x1="341" x2="341" y1="182.27" y2="2" class="cls-3"/><line x1="219" x2="219" y1="182.27" y2="2" class="cls-3"/><line x1="99" x2="99" y1="182.27" y2="2" class="cls-3"/><line x1="41" x2="41" y1="182.27" y2="2" class="cls-3"/><line x1="419" x2="419" y1="182.27" y2="2" class="cls-3"/><line x1="389" x2="389" y1="182.27" y2="2" class="cls-3"/><line x1="187" x2="187" y1="182.27" y2="2" class="cls-3"/><line x1="69" x2="69" y1="182.27" y2="2" class="cls-3"/><line x1="177" x2="177" y1="182.27" y2="2" class="cls-3"/><line x1="149" x2="149" y1="182.27" y2="2" class="cls-3"/><line x1="141" x2="141" y1="182.27" y2="2" class="cls-3"/><line x1="464" x2="464" y1="182.27" y2="2" class="cls-3"/><line x1="285" x2="285" y1="182.27" y2="2" class="cls-3"/><line x1="317" x2="317" y1="182.27" y2="2" class="cls-3"/><line x1="454" x2="454" y1="182.27" y2="2" class="cls-3"/><line x1="275" x2="275" y1="182.27" y2="2" class="cls-3"/><line x1="308" x2="308" y1="182.27" y2="2" class="cls-3"/><line x1="207" x2="207" y1="182.27" y2="2" class="cls-3"/><line x1="17" x2="17" y1="182.27" y2="2" class="cls-3"/><line x1="377" x2="377" y1="182.27" y2="2" class="cls-3"/><line x1="119" x2="119" y1="182.27" y2="2" class="cls-3"/><line x1="488" x2="488" y1="182.27" y2="2" class="cls-3"/><line x1="409" x2="409" y1="182.27" y2="2" class="cls-3"/><line x1="229" x2="229" y1="182.27" y2="2" class="cls-3"/><line x1="109" x2="109" y1="182.27" y2="2" class="cls-3"/><line x1="47" x2="47" y1="182.27" y2="2" class="cls-3"/><line x1="439" x2="439" y1="182.27" y2="2" class="cls-3"/><line x1="399" x2="399" y1="182.27" y2="2" class="cls-3"/><line x1="127" x2="127" y1="182.27" y2="2" class="cls-3"/><line x1="79" x2="79" y1="182.27" y2="2" class="cls-3"/><line x1="187" x2="187" y1="182.27" y2="2" class="cls-3"/><line x1="159" x2="159" y1="182.27" y2="2" class="cls-3"/><line x1="177" x2="177" y1="182.27" y2="2" class="cls-3"/><line x1="149" x2="149" y1="182.27" y2="2" class="cls-3"/><line x1="474" x2="474" y1="182.27" y2="2" class="cls-3"/><line x1="295" x2="295" y1="182.27" y2="2" class="cls-3"/><line x1="266" x2="266" y1="182.27" y2="2" class="cls-3"/><line x1="464" x2="464" y1="182.27" y2="2" class="cls-3"/><line x1="285" x2="285" y1="182.27" y2="2" class="cls-3"/><line x1="317" x2="317" y1="182.27" y2="2" class="cls-3"/><line x1="247" x2="247" y1="182.27" y2="2" class="cls-3"/><line x1="58" x2="58" y1="182.27" y2="2" class="cls-3"/><line x1="387" x2="387" y1="182.27" y2="2" class="cls-3"/><line x1="9" x2="9" y1="182.27" y2="2" class="cls-3"/><line x1="292" x2="292" y1="182.27" y2="2" class="cls-3"/><line x1="301" x2="301" y1="182.27" y2="2" class="cls-3"/><line x1="428" x2="428" y1="182.27" y2="2" class="cls-3"/><line x1="373" x2="373" y1="182.27" y2="2" class="cls-3"/><line x1="56" x2="56" y1="182.27" y2="2" class="cls-3"/><line x1="494" x2="494" y1="182.27" y2="2" class="cls-3"/><line x1="497" x2="497" y1="182.27" y2="2" class="cls-3"/></g></svg>