<svg xmlns="http://www.w3.org/2000/svg" xmlns:svg="http://www.w3.org/2000/svg" xmlns:xlink="http://www.w3.org/1999/xlink" id="svg1040" width="250mm" height="250mm" version="1.1" viewBox="0 0 250 250"><defs id="defs1034"><linearGradient id="linearGradient5483" x1="164.658" x2="-11.725" y1="112.119" y2="47.921" gradientTransform="matrix(0.9642,0.2653,0.2653,-0.9642,12.1812,144.7119)" gradientUnits="userSpaceOnUse" xlink:href="#SVGID_1_"/><linearGradient id="SVGID_1_" x1="164.658" x2="-11.725" y1="112.119" y2="47.921" gradientTransform="matrix(0.9642,0.2653,0.2653,-0.9642,12.1812,144.7119)" gradientUnits="userSpaceOnUse"><stop offset=".299" style="stop-color:#0097ce" id="stop4984"/><stop offset=".379" style="stop-color:#0999c5" id="stop4986"/><stop offset=".512" style="stop-color:#229dad" id="stop4988"/><stop offset=".647" style="stop-color:#42a38f" id="stop4990"/><stop offset=".735" style="stop-color:#5dad82" id="stop4992"/><stop offset=".924" style="stop-color:#a1c661" id="stop4994"/><stop offset="1" style="stop-color:#bed153" id="stop4996"/></linearGradient><linearGradient id="linearGradient5485" x1="-37.625" x2="150.252" y1="106.951" y2="106.951" gradientTransform="matrix(0.9642,0.2653,0.2653,-0.9642,12.1812,144.7119)" gradientUnits="userSpaceOnUse" xlink:href="#SVGID_2_"/><linearGradient id="SVGID_2_" x1="-37.625" x2="150.252" y1="106.951" y2="106.951" gradientTransform="matrix(0.9642,0.2653,0.2653,-0.9642,12.1812,144.7119)" gradientUnits="userSpaceOnUse"><stop offset=".082" style="stop-color:#3d65af" id="stop5001"/><stop offset=".231" style="stop-color:#2372b8" id="stop5003"/><stop offset=".506" style="stop-color:#00b8bb" id="stop5005"/></linearGradient><linearGradient id="linearGradient5487" x1="-37.614" x2="64.396" y1="127.817" y2="127.817" gradientTransform="matrix(0.9642,0.2653,0.2653,-0.9642,12.1812,144.7119)" gradientUnits="userSpaceOnUse" xlink:href="#SVGID_3_"/><linearGradient id="SVGID_3_" x1="-37.614" x2="64.396" y1="127.817" y2="127.817" gradientTransform="matrix(0.9642,0.2653,0.2653,-0.9642,12.1812,144.7119)" gradientUnits="userSpaceOnUse"><stop offset=".13" style="stop-color:#000" id="stop5010"/><stop offset=".328" style="stop-color:#00334b" id="stop5012"/><stop offset=".528" style="stop-color:#006190" id="stop5014"/><stop offset=".672" style="stop-color:#007fbb" id="stop5016"/><stop offset=".746" style="stop-color:#008acc" id="stop5018"/></linearGradient><linearGradient id="linearGradient5489" x1="-37.614" x2="64.396" y1="131.458" y2="131.458" gradientTransform="matrix(0.9642,0.2653,0.2653,-0.9642,12.1812,144.7119)" gradientUnits="userSpaceOnUse" xlink:href="#SVGID_4_"/><linearGradient id="SVGID_4_" x1="-37.614" x2="64.396" y1="131.458" y2="131.458" gradientTransform="matrix(0.9642,0.2653,0.2653,-0.9642,12.1812,144.7119)" gradientUnits="userSpaceOnUse"><stop offset=".13" style="stop-color:#000" id="stop5023"/><stop offset=".328" style="stop-color:#00334b" id="stop5025"/><stop offset=".528" style="stop-color:#006190" id="stop5027"/><stop offset=".672" style="stop-color:#007fbb" id="stop5029"/><stop offset=".746" style="stop-color:#008acc" id="stop5031"/></linearGradient><linearGradient id="linearGradient5491" x1="-37.614" x2="64.396" y1="131.059" y2="131.059" gradientTransform="matrix(0.9642,0.2653,0.2653,-0.9642,12.1812,144.7119)" gradientUnits="userSpaceOnUse" xlink:href="#SVGID_5_"/><linearGradient id="SVGID_5_" x1="-37.614" x2="64.396" y1="131.059" y2="131.059" gradientTransform="matrix(0.9642,0.2653,0.2653,-0.9642,12.1812,144.7119)" gradientUnits="userSpaceOnUse"><stop offset=".13" style="stop-color:#000" id="stop5036"/><stop offset=".328" style="stop-color:#00334b" id="stop5038"/><stop offset=".528" style="stop-color:#006190" id="stop5040"/><stop offset=".672" style="stop-color:#007fbb" id="stop5042"/><stop offset=".746" style="stop-color:#008acc" id="stop5044"/></linearGradient><linearGradient id="linearGradient5493" x1="-22.355" x2="64.334" y1="110.808" y2="110.808" gradientTransform="matrix(0.9642,0.2653,0.2653,-0.9642,12.1812,144.7119)" gradientUnits="userSpaceOnUse" xlink:href="#SVGID_6_"/><linearGradient id="SVGID_6_" x1="-22.355" x2="64.334" y1="110.808" y2="110.808" gradientTransform="matrix(0.9642,0.2653,0.2653,-0.9642,12.1812,144.7119)" gradientUnits="userSpaceOnUse"><stop offset=".13" style="stop-color:#2483c5" id="stop5049"/><stop offset=".167" style="stop-color:#2486c7" id="stop5051"/><stop offset=".676" style="stop-color:#29b1df" id="stop5053"/><stop offset=".935" style="stop-color:#2bc2e8" id="stop5055"/></linearGradient><linearGradient id="linearGradient5495" x1="-37.614" x2="64.396" y1="123.078" y2="123.078" gradientTransform="matrix(0.9642,0.2653,0.2653,-0.9642,12.1812,144.7119)" gradientUnits="userSpaceOnUse" xlink:href="#SVGID_7_"/><linearGradient id="SVGID_7_" x1="-37.614" x2="64.396" y1="123.078" y2="123.078" gradientTransform="matrix(0.9642,0.2653,0.2653,-0.9642,12.1812,144.7119)" gradientUnits="userSpaceOnUse"><stop offset=".13" style="stop-color:#000" id="stop5060"/><stop offset=".328" style="stop-color:#00334b" id="stop5062"/><stop offset=".528" style="stop-color:#006190" id="stop5064"/><stop offset=".672" style="stop-color:#007fbb" id="stop5066"/><stop offset=".746" style="stop-color:#008acc" id="stop5068"/></linearGradient><linearGradient id="linearGradient5497" x1="-37.319" x2="-37.319" y1="127.218" y2="127.218" gradientTransform="matrix(0.9642,0.2653,0.2653,-0.9642,12.1812,144.7119)" gradientUnits="userSpaceOnUse" xlink:href="#SVGID_8_"/><linearGradient id="SVGID_8_" x1="-37.319" x2="-37.319" y1="127.218" y2="127.218" gradientTransform="matrix(0.9642,0.2653,0.2653,-0.9642,12.1812,144.7119)" gradientUnits="userSpaceOnUse"><stop offset=".13" style="stop-color:#000" id="stop5073"/><stop offset=".328" style="stop-color:#00334b" id="stop5075"/><stop offset=".528" style="stop-color:#006190" id="stop5077"/><stop offset=".672" style="stop-color:#007fbb" id="stop5079"/><stop offset=".746" style="stop-color:#008acc" id="stop5081"/></linearGradient><linearGradient id="linearGradient5499" x1="-37.319" x2="-37.319" y1="127.318" y2="127.318" gradientTransform="matrix(0.9642,0.2653,0.2653,-0.9642,12.1812,144.7119)" gradientUnits="userSpaceOnUse" xlink:href="#SVGID_9_"/><linearGradient id="SVGID_9_" x1="-37.319" x2="-37.319" y1="127.318" y2="127.318" gradientTransform="matrix(0.9642,0.2653,0.2653,-0.9642,12.1812,144.7119)" gradientUnits="userSpaceOnUse"><stop offset="0" style="stop-color:#682c90" id="stop5086"/><stop offset=".496" style="stop-color:#817cb9" id="stop5088"/><stop offset="1" style="stop-color:#fff" id="stop5090"/></linearGradient><linearGradient id="linearGradient5501" x1="49.151" x2="-2.518" y1="131.707" y2="131.707" gradientTransform="matrix(0.9642,0.2653,0.2653,-0.9642,12.1812,144.7119)" gradientUnits="userSpaceOnUse" xlink:href="#SVGID_10_"/><linearGradient id="SVGID_10_" x1="49.151" x2="-2.518" y1="131.707" y2="131.707" gradientTransform="matrix(0.9642,0.2653,0.2653,-0.9642,12.1812,144.7119)" gradientUnits="userSpaceOnUse"><stop offset="0" style="stop-color:#682c90" id="stop5095"/><stop offset=".496" style="stop-color:#817cb9" id="stop5097"/><stop offset="1" style="stop-color:#fff" id="stop5099"/></linearGradient><linearGradient id="linearGradient5503" x1="49.151" x2="-2.518" y1="125.622" y2="125.622" gradientTransform="matrix(0.9642,0.2653,0.2653,-0.9642,12.1812,144.7119)" gradientUnits="userSpaceOnUse" xlink:href="#SVGID_11_"/><linearGradient id="SVGID_11_" x1="49.151" x2="-2.518" y1="125.622" y2="125.622" gradientTransform="matrix(0.9642,0.2653,0.2653,-0.9642,12.1812,144.7119)" gradientUnits="userSpaceOnUse"><stop offset="0" style="stop-color:#682c90" id="stop5104"/><stop offset=".496" style="stop-color:#817cb9" id="stop5106"/><stop offset="1" style="stop-color:#fff" id="stop5108"/></linearGradient><linearGradient id="linearGradient5505" x1="49.151" x2="-2.518" y1="130.76" y2="130.76" gradientTransform="matrix(0.9642,0.2653,0.2653,-0.9642,12.1812,144.7119)" gradientUnits="userSpaceOnUse" xlink:href="#SVGID_12_"/><linearGradient id="SVGID_12_" x1="49.151" x2="-2.518" y1="130.76" y2="130.76" gradientTransform="matrix(0.9642,0.2653,0.2653,-0.9642,12.1812,144.7119)" gradientUnits="userSpaceOnUse"><stop offset="0" style="stop-color:#682c90" id="stop5113"/><stop offset=".496" style="stop-color:#817cb9" id="stop5115"/><stop offset="1" style="stop-color:#fff" id="stop5117"/></linearGradient><linearGradient id="linearGradient5507" x1="-34.426" x2="48.367" y1="92.902" y2="92.902" gradientTransform="matrix(0.9642,0.2653,0.2653,-0.9642,12.1812,144.7119)" gradientUnits="userSpaceOnUse" xlink:href="#SVGID_13_"/><linearGradient id="SVGID_13_" x1="-34.426" x2="48.367" y1="92.902" y2="92.902" gradientTransform="matrix(0.9642,0.2653,0.2653,-0.9642,12.1812,144.7119)" gradientUnits="userSpaceOnUse"><stop offset=".13" style="stop-color:#3b67ad" id="stop5122"/><stop offset=".57" style="stop-color:#227caa" id="stop5124"/><stop offset=".935" style="stop-color:#118aa8" id="stop5126"/></linearGradient><linearGradient id="linearGradient5509" x1="49.151" x2="-2.518" y1="131.258" y2="131.258" gradientTransform="matrix(0.9642,0.2653,0.2653,-0.9642,12.1812,144.7119)" gradientUnits="userSpaceOnUse" xlink:href="#SVGID_14_"/><linearGradient id="SVGID_14_" x1="49.151" x2="-2.518" y1="131.258" y2="131.258" gradientTransform="matrix(0.9642,0.2653,0.2653,-0.9642,12.1812,144.7119)" gradientUnits="userSpaceOnUse"><stop offset="0" style="stop-color:#682c90" id="stop5131"/><stop offset=".496" style="stop-color:#817cb9" id="stop5133"/><stop offset="1" style="stop-color:#fff" id="stop5135"/></linearGradient><linearGradient id="linearGradient5511" x1="-37.618" x2="64.392" y1="111.276" y2="111.276" gradientTransform="matrix(0.9642,0.2653,0.2653,-0.9642,12.1812,144.7119)" gradientUnits="userSpaceOnUse" xlink:href="#SVGID_15_"/><linearGradient id="SVGID_15_" x1="-37.618" x2="64.392" y1="111.276" y2="111.276" gradientTransform="matrix(0.9642,0.2653,0.2653,-0.9642,12.1812,144.7119)" gradientUnits="userSpaceOnUse"><stop offset=".13" style="stop-color:#000" id="stop5140"/><stop offset=".328" style="stop-color:#00334b" id="stop5142"/><stop offset=".528" style="stop-color:#006190" id="stop5144"/><stop offset=".672" style="stop-color:#007fbb" id="stop5146"/><stop offset=".746" style="stop-color:#008acc" id="stop5148"/></linearGradient><linearGradient id="linearGradient5513" x1="-37.618" x2="45.38" y1="111.276" y2="111.276" gradientTransform="matrix(0.9642,0.2653,0.2653,-0.9642,12.1812,144.7119)" gradientUnits="userSpaceOnUse" xlink:href="#SVGID_16_"/><linearGradient id="SVGID_16_" x1="-37.618" x2="45.38" y1="111.276" y2="111.276" gradientTransform="matrix(0.9642,0.2653,0.2653,-0.9642,12.1812,144.7119)" gradientUnits="userSpaceOnUse"><stop offset=".13" style="stop-color:#3a67b0" id="stop5153"/><stop offset=".562" style="stop-color:#357fbd" id="stop5155"/><stop offset=".935" style="stop-color:#3290c6" id="stop5157"/></linearGradient><linearGradient id="linearGradient5515" x1="64.434" x2="150.278" y1="122.901" y2="122.901" gradientTransform="matrix(0.9642,0.2653,0.2653,-0.9642,12.1812,144.7119)" gradientUnits="userSpaceOnUse" xlink:href="#SVGID_17_"/><linearGradient id="SVGID_17_" x1="64.434" x2="150.278" y1="122.901" y2="122.901" gradientTransform="matrix(0.9642,0.2653,0.2653,-0.9642,12.1812,144.7119)" gradientUnits="userSpaceOnUse"><stop offset=".172" style="stop-color:#4e5ca8" id="stop5162"/><stop offset=".994" style="stop-color:#1fc3f3" id="stop5164"/></linearGradient></defs><metadata id="metadata1037"/><g id="layer1" transform="translate(0,-47)"><g id="g5463" transform="matrix(1.2477579,0,0,1.2477579,-4.3193179,77.786293)"><g id="g5461"><linearGradient id="linearGradient5271" x1="164.658" x2="-11.725" y1="112.119" y2="47.921" gradientTransform="matrix(0.9642,0.2653,0.2653,-0.9642,12.1812,144.7119)" gradientUnits="userSpaceOnUse"><stop id="stop5257" style="stop-color:#0097ce" offset=".299"/><stop id="stop5259" style="stop-color:#0999c5" offset=".379"/><stop id="stop5261" style="stop-color:#229dad" offset=".512"/><stop id="stop5263" style="stop-color:#42a38f" offset=".647"/><stop id="stop5265" style="stop-color:#5dad82" offset=".735"/><stop id="stop5267" style="stop-color:#a1c661" offset=".924"/><stop id="stop5269" style="stop-color:#bed153" offset="1"/></linearGradient><path style="fill:url(#linearGradient5483)" id="path5273" d="m 196.8,37.7 c -4.3,-0.6 -13.8,-0.8 -32.6,3.1 -2.3,0.5 -4.5,0.8 -6.8,0.7 -2.4,-0.2 -5,-0.9 -7.3,-1.6 -10.3,-3.5 -18.8,-2.4 -23.8,0.2 v 0 c -2.8,1.5 -5,3.4 -7.4,6.6 -3.1,4.2 -9.6,17 -18.5,20.4 v 0 c -5,3.2 -10.4,6.5 -15.1,11.2 -3,3.1 -3.8,10.4 -11.7,17.5 v 0 0 0 C 64.8,108.6 54.7,117.9 44.4,124.7 29.5,135.1 17,138.3 17,138.3 c 0,0 33.1,9.1 69.4,-7.9 27.6,-13 41.9,-38.3 45.2,-43.9 l 18,-30.6 c 1.6,-2.8 4.5,-6.4 7.2,-7.8 0.9,-0.5 1.7,-0.8 1.9,-1 2,-1 4.1,-1.8 6.2,-2.6 12.6,-4.5 25.7,-4.9 31.8,-5.6 0.8,-0.2 0.7,-1.1 0.1,-1.2 z" class="st0"/><linearGradient id="linearGradient5281" x1="-37.625" x2="150.252" y1="106.951" y2="106.951" gradientTransform="matrix(0.9642,0.2653,0.2653,-0.9642,12.1812,144.7119)" gradientUnits="userSpaceOnUse"><stop id="stop5275" style="stop-color:#3d65af" offset=".082"/><stop id="stop5277" style="stop-color:#2372b8" offset=".231"/><stop id="stop5279" style="stop-color:#00b8bb" offset=".506"/></linearGradient><path style="fill:url(#linearGradient5485)" id="path5283" d="m 196.8,37.7 c -4.3,-0.6 -13.8,-0.8 -32.6,3.1 -2.3,0.5 -4.5,0.8 -6.8,0.7 -2.4,-0.2 -5,-0.9 -7.3,-1.6 -10.6,-3.5 -18.7,-2.6 -23.8,0.2 -2.8,1.5 -5,3.4 -7.4,6.6 -3.1,4.2 -9.6,17 -18.5,20.4 v 0 C 90.4,57.7 81.6,49.8 73.1,42.8 68.3,39 63.6,35.4 59.6,32.8 49.4,25.8 39.1,19.5 28.8,14.6 c -4.6,-2.1 -9.4,-4 -14.7,-6 -2.3,-0.7 -3.6,0.4 -4,2.2 -0.2,0.6 -0.4,2.2 0.6,5 2.3,6.2 5.7,13.3 9.8,20.5 v 0 c 1.5,2.7 3.2,5.5 5,8.3 8.3,13 18.7,26.1 29.3,36.4 2.3,2.2 4.5,4.2 6.9,6.1 3,2.5 6.1,4.8 9,6.7 0.3,0.2 1.8,1.1 2.8,1.7 2,1.1 4.7,2.4 6.4,3.1 8.4,3.7 15.7,4.8 22.1,4.7 11.1,0.3 20.1,-3.2 24.5,-9.1 1.8,-2.5 3.6,-5.1 5.1,-7.8 l 18,-30.6 c 1.6,-2.8 4.5,-6.4 7.2,-7.8 0.9,-0.5 1.7,-0.8 1.9,-1 1.9,-0.9 1.9,-0.6 3.9,-1.4 12.8,-4.5 28.1,-6.1 34.2,-6.8 0.7,-0.1 0.6,-1 0,-1.1 z" class="st1"/><linearGradient id="linearGradient5295" x1="-37.614" x2="64.396" y1="127.817" y2="127.817" gradientTransform="matrix(0.9642,0.2653,0.2653,-0.9642,12.1812,144.7119)" gradientUnits="userSpaceOnUse"><stop id="stop5285" style="stop-color:#000" offset=".13"/><stop id="stop5287" style="stop-color:#00334b" offset=".328"/><stop id="stop5289" style="stop-color:#006190" offset=".528"/><stop id="stop5291" style="stop-color:#007fbb" offset=".672"/><stop id="stop5293" style="stop-color:#008acc" offset=".746"/></linearGradient><path style="opacity:.8;fill:url(#linearGradient5487);enable-background:new" id="path5297" d="m 9.9,11.9 c 0,-0.3 0.1,-0.6 0,-0.8 0.1,0.2 0.1,0.5 0,0.8 z" class="st2"/><linearGradient id="linearGradient5309" x1="-37.614" x2="64.396" y1="131.458" y2="131.458" gradientTransform="matrix(0.9642,0.2653,0.2653,-0.9642,12.1812,144.7119)" gradientUnits="userSpaceOnUse"><stop id="stop5299" style="stop-color:#000" offset=".13"/><stop id="stop5301" style="stop-color:#00334b" offset=".328"/><stop id="stop5303" style="stop-color:#006190" offset=".528"/><stop id="stop5305" style="stop-color:#007fbb" offset=".672"/><stop id="stop5307" style="stop-color:#008acc" offset=".746"/></linearGradient><path style="opacity:.8;fill:url(#linearGradient5489);enable-background:new" id="path5311" d="m 18.3,10 v 0 C 18.1,9.9 18,9.9 17.8,9.9 c 0.3,0.1 0.6,0.3 0.9,0.4 0,-0.1 -0.2,-0.2 -0.4,-0.3 z" class="st3"/><linearGradient id="linearGradient5323" x1="-37.614" x2="64.396" y1="131.059" y2="131.059" gradientTransform="matrix(0.9642,0.2653,0.2653,-0.9642,12.1812,144.7119)" gradientUnits="userSpaceOnUse"><stop id="stop5313" style="stop-color:#000" offset=".13"/><stop id="stop5315" style="stop-color:#00334b" offset=".328"/><stop id="stop5317" style="stop-color:#006190" offset=".528"/><stop id="stop5319" style="stop-color:#007fbb" offset=".672"/><stop id="stop5321" style="stop-color:#008acc" offset=".746"/></linearGradient><path style="opacity:.8;fill:url(#linearGradient5491);enable-background:new" id="path5325" d="m 21.4,11.3 c -0.1,0 -0.3,-0.1 -0.4,-0.1 0.3,0.1 0.6,0.3 0.8,0.3 -0.2,-0.1 -0.3,-0.2 -0.4,-0.2 z" class="st4"/><linearGradient id="linearGradient5335" x1="-22.355" x2="64.334" y1="110.808" y2="110.808" gradientTransform="matrix(0.9642,0.2653,0.2653,-0.9642,12.1812,144.7119)" gradientUnits="userSpaceOnUse"><stop id="stop5327" style="stop-color:#2483c5" offset=".13"/><stop id="stop5329" style="stop-color:#2486c7" offset=".167"/><stop id="stop5331" style="stop-color:#29b1df" offset=".676"/><stop id="stop5333" style="stop-color:#2bc2e8" offset=".935"/></linearGradient><path style="fill:url(#linearGradient5493)" id="path5337" d="m 80.1,68.9 c 7.1,0.9 14,0.4 20.2,-2 v 0 c -6,-5.6 -11.7,-10.7 -17,-15.3 v 0 C 80.6,49.3 78,47 75.5,44.9 75.4,44.8 75.2,44.7 75.2,44.6 74.5,44 73.9,43.5 73.3,43 73.1,42.9 73,42.7 72.9,42.7 68.1,38.9 63.4,35.4 59.6,32.7 49.4,25.8 39.2,19.4 28.9,14.5 28,14 27.1,13.7 26.1,13.2 c -0.3,-0.1 -0.6,-0.3 -0.8,-0.3 39.8,21.5 52.5,41 54.8,56 z" class="st5"/><linearGradient id="linearGradient5349" x1="-37.614" x2="64.396" y1="123.078" y2="123.078" gradientTransform="matrix(0.9642,0.2653,0.2653,-0.9642,12.1812,144.7119)" gradientUnits="userSpaceOnUse"><stop id="stop5339" style="stop-color:#000" offset=".13"/><stop id="stop5341" style="stop-color:#00334b" offset=".328"/><stop id="stop5343" style="stop-color:#006190" offset=".528"/><stop id="stop5345" style="stop-color:#007fbb" offset=".672"/><stop id="stop5347" style="stop-color:#008acc" offset=".746"/></linearGradient><path style="opacity:.8;fill:url(#linearGradient5495);enable-background:new" id="path5351" d="m 11.4,17.7 v 0 c -0.3,-0.6 -0.5,-1.3 -0.8,-2 0.3,0.6 0.5,1.3 0.8,2 z" class="st6"/><linearGradient id="linearGradient5363" x1="-37.319" x2="-37.319" y1="127.218" y2="127.218" gradientTransform="matrix(0.9642,0.2653,0.2653,-0.9642,12.1812,144.7119)" gradientUnits="userSpaceOnUse"><stop id="stop5353" style="stop-color:#000" offset=".13"/><stop id="stop5355" style="stop-color:#00334b" offset=".328"/><stop id="stop5357" style="stop-color:#006190" offset=".528"/><stop id="stop5359" style="stop-color:#007fbb" offset=".672"/><stop id="stop5361" style="stop-color:#008acc" offset=".746"/></linearGradient><path style="opacity:.8;fill:url(#linearGradient5497);enable-background:new" id="path5365" d="M 9.9,12.2 Z" class="st7"/><linearGradient id="linearGradient5373" x1="-37.319" x2="-37.319" y1="127.318" y2="127.318" gradientTransform="matrix(0.9642,0.2653,0.2653,-0.9642,12.1812,144.7119)" gradientUnits="userSpaceOnUse"><stop id="stop5367" style="stop-color:#682c90" offset="0"/><stop id="stop5369" style="stop-color:#817cb9" offset=".496"/><stop id="stop5371" style="stop-color:#fff" offset="1"/></linearGradient><path style="opacity:.3;fill:url(#linearGradient5499);enable-background:new" id="path5375" d="m 9.9,12.2 c 0,-0.1 0,-0.1 0.1,-0.2 0,0.1 0,0.1 -0.1,0.2 z" class="st8"/><linearGradient id="linearGradient5383" x1="49.151" x2="-2.518" y1="131.707" y2="131.707" gradientTransform="matrix(0.9642,0.2653,0.2653,-0.9642,12.1812,144.7119)" gradientUnits="userSpaceOnUse"><stop id="stop5377" style="stop-color:#682c90" offset="0"/><stop id="stop5379" style="stop-color:#817cb9" offset=".496"/><stop id="stop5381" style="stop-color:#fff" offset="1"/></linearGradient><path style="opacity:.3;fill:url(#linearGradient5501);enable-background:new" id="path5385" d="M 14.2,8.5 C 15.5,9 16.7,9.4 17.9,9.9 16.6,9.4 15.4,8.9 14.2,8.5 Z" class="st9"/><linearGradient id="linearGradient5393" x1="49.151" x2="-2.518" y1="125.622" y2="125.622" gradientTransform="matrix(0.9642,0.2653,0.2653,-0.9642,12.1812,144.7119)" gradientUnits="userSpaceOnUse"><stop id="stop5387" style="stop-color:#682c90" offset="0"/><stop id="stop5389" style="stop-color:#817cb9" offset=".496"/><stop id="stop5391" style="stop-color:#fff" offset="1"/></linearGradient><path style="opacity:.3;fill:url(#linearGradient5503);enable-background:new" id="path5395" d="m 9.9,12.2 c 0,0.8 0.2,2 0.7,3.5 v 0 0 C 10.1,14.2 9.9,13 9.9,12.2 Z" class="st10"/><linearGradient id="linearGradient5403" x1="49.151" x2="-2.518" y1="130.76" y2="130.76" gradientTransform="matrix(0.9642,0.2653,0.2653,-0.9642,12.1812,144.7119)" gradientUnits="userSpaceOnUse"><stop id="stop5397" style="stop-color:#682c90" offset="0"/><stop id="stop5399" style="stop-color:#817cb9" offset=".496"/><stop id="stop5401" style="stop-color:#fff" offset="1"/></linearGradient><path style="opacity:.3;fill:url(#linearGradient5505);enable-background:new" id="path5405" d="m 24.7,12.7 c 0.2,0.1 0.4,0.2 0.6,0.3 v 0 c -1.1,-0.5 -2.3,-1 -3.5,-1.5 0.4,0.2 0.7,0.3 1.1,0.5 0.6,0.2 1.2,0.4 1.8,0.7 z" class="st11"/><linearGradient id="linearGradient5413" x1="-34.426" x2="48.367" y1="92.902" y2="92.902" gradientTransform="matrix(0.9642,0.2653,0.2653,-0.9642,12.1812,144.7119)" gradientUnits="userSpaceOnUse"><stop id="stop5407" style="stop-color:#3b67ad" offset=".13"/><stop id="stop5409" style="stop-color:#227caa" offset=".57"/><stop id="stop5411" style="stop-color:#118aa8" offset=".935"/></linearGradient><path style="fill:url(#linearGradient5507)" id="path5415" d="M 36.5,47.9 C 25.8,39.3 15.7,27.3 11.4,17.8 c 10,25.3 36,61.2 59.2,76 0.4,0.3 1.8,1.1 2.9,1.7 3,-4.6 8.5,-14.1 6.6,-26.6 C 65.8,67 50.4,59.2 36.5,47.9 Z" class="st12"/><linearGradient id="linearGradient5423" x1="49.151" x2="-2.518" y1="131.258" y2="131.258" gradientTransform="matrix(0.9642,0.2653,0.2653,-0.9642,12.1812,144.7119)" gradientUnits="userSpaceOnUse"><stop id="stop5417" style="stop-color:#682c90" offset="0"/><stop id="stop5419" style="stop-color:#817cb9" offset=".496"/><stop id="stop5421" style="stop-color:#fff" offset="1"/></linearGradient><path style="opacity:.3;fill:url(#linearGradient5509);enable-background:new" id="path5425" d="m 21,11.2 c -0.7,-0.3 -1.4,-0.6 -2.1,-0.9 0.1,0 0.2,0.1 0.3,0.1 0.5,0.2 1.1,0.5 1.8,0.8 z" class="st13"/><linearGradient id="linearGradient5437" x1="-37.618" x2="64.392" y1="111.276" y2="111.276" gradientTransform="matrix(0.9642,0.2653,0.2653,-0.9642,12.1812,144.7119)" gradientUnits="userSpaceOnUse"><stop id="stop5427" style="stop-color:#000" offset=".13"/><stop id="stop5429" style="stop-color:#00334b" offset=".328"/><stop id="stop5431" style="stop-color:#006190" offset=".528"/><stop id="stop5433" style="stop-color:#007fbb" offset=".672"/><stop id="stop5435" style="stop-color:#008acc" offset=".746"/></linearGradient><path style="opacity:.8;fill:url(#linearGradient5511);enable-background:new" id="path5439" d="M 36.5,47.9 C 50.4,59.2 65.8,66.9 80.1,68.8 77.8,53.9 65.1,34.3 25.3,13 25.1,12.9 24.8,12.8 24.7,12.7 24.1,12.4 23.5,12.2 23,11.9 22.6,11.7 22.3,11.6 21.9,11.4 21.6,11.3 21.3,11.1 21.1,11.1 20.5,10.8 19.9,10.6 19.2,10.4 19.1,10.4 19,10.3 18.9,10.3 18.6,10.2 18.3,10 18,9.9 16.8,9.5 15.6,8.9 14.3,8.5 12,7.8 10.7,8.9 10.2,10.6 c 0,0.1 -0.1,0.3 -0.1,0.6 -0.1,0.2 0,0.5 0,0.8 0,0.1 0,0.1 -0.1,0.2 v 0 c 0,0.8 0.2,2 0.7,3.5 v 0 c 0.2,0.7 0.5,1.4 0.8,2.1 4.2,9.5 14.4,21.5 25,30.1 z" class="st14"/><linearGradient id="linearGradient5447" x1="-37.618" x2="45.38" y1="111.276" y2="111.276" gradientTransform="matrix(0.9642,0.2653,0.2653,-0.9642,12.1812,144.7119)" gradientUnits="userSpaceOnUse"><stop id="stop5441" style="stop-color:#3a67b0" offset=".13"/><stop id="stop5443" style="stop-color:#357fbd" offset=".562"/><stop id="stop5445" style="stop-color:#3290c6" offset=".935"/></linearGradient><path style="fill:url(#linearGradient5513)" id="path5449" d="M 36.5,47.9 C 50.4,59.2 65.8,66.9 80.1,68.8 77.8,53.9 65.1,34.3 25.3,13 25.1,12.9 24.8,12.8 24.7,12.7 24.1,12.4 23.5,12.2 23,11.9 22.6,11.7 22.3,11.6 21.9,11.4 21.6,11.3 21.3,11.1 21.1,11.1 20.5,10.8 19.9,10.6 19.2,10.4 19.1,10.4 19,10.3 18.9,10.3 18.6,10.2 18.3,10 18,9.9 16.8,9.5 15.6,8.9 14.3,8.5 12,7.8 10.7,8.9 10.2,10.6 c 0,0.1 -0.1,0.3 -0.1,0.6 -0.1,0.2 0,0.5 0,0.8 0,0.1 0,0.1 -0.1,0.2 v 0 c 0,0.8 0.2,2 0.7,3.5 v 0 c 0.2,0.7 0.5,1.4 0.8,2.1 4.2,9.5 14.4,21.5 25,30.1 z" class="st15"/><linearGradient id="linearGradient5455" x1="64.434" x2="150.278" y1="122.901" y2="122.901" gradientTransform="matrix(0.9642,0.2653,0.2653,-0.9642,12.1812,144.7119)" gradientUnits="userSpaceOnUse"><stop id="stop5451" style="stop-color:#4e5ca8" offset=".172"/><stop id="stop5453" style="stop-color:#1fc3f3" offset=".994"/></linearGradient><path style="fill:url(#linearGradient5515)" id="path5457" d="m 196.8,37.7 c -4.3,-0.6 -13.8,-0.8 -32.6,3.1 -2.3,0.5 -4.5,0.8 -6.8,0.7 -2.4,-0.2 -5,-0.9 -7.3,-1.6 -6,-2 -11.1,-2.6 -15.2,-2.3 -3.6,0.3 -7,1.4 -9.9,3.4 -2.1,1.4 -4.1,3.1 -6,5.8 -3.1,4.2 -9.6,17 -18.5,20.4 v 0 0 c 7,6.6 17.8,12.1 27.9,8.8 9.7,-3.2 15.7,-11.8 17.6,-14.6 4,-5.9 6.2,-8.1 6.4,-8.4 0.5,-0.5 4.2,-4.8 11.9,-7.4 11.4,-3.8 28.6,-6.1 32.7,-6.5 0.5,-0.4 0.4,-1.3 -0.2,-1.4 z" class="st16"/><circle style="fill:#fff" id="circle5459" cx="140.8" cy="48.6" r="3" class="st17" transform="matrix(0.2653,-0.9642,0.9642,0.2653,56.6453,171.4881)"/></g></g></g></svg>